PathFileType	4	(X/Y/Z)	c:/Users/goper/Files/vsCode/490R/osim_files/A04/A04_Slow_04.trc
DataRate	CameraRate	NumFrames	NumMarkers	Units                	OrigDataRate	OrigDataStartFrame	OrigNumFrames
120.00	120.00	7	36	mm	120.0	284	1133
                Frame#	Time	LPSIS			LASIS			LTH1			LTH2			LTH3			LTH4			LLFE			LMFE			LSH1			LSH2			LSH3			LSH4			LLMAL			LMMAL			LCAL			LMTP5			LTOE			LMTP1			RPSIS			RASIS			RTH1			RTH2			RTH3			RTH4			RLFE			RMFE			RSH1			RSH2			RSH3			RSH4			RLMAL			RMMAL			RCAL			RMTP1			RTOE			RMTP5		
		X1	Y1	Z1	X2	Y2	Z2	X3	Y3	Z3	X4	Y4	Z4	X5	Y5	Z5	X6	Y6	Z6	X7	Y7	Z7	X8	Y8	Z8	X9	Y9	Z9	X10	Y10	Z10	X11	Y11	Z11	X12	Y12	Z12	X13	Y13	Z13	X14	Y14	Z14	X15	Y15	Z15	X16	Y16	Z16	X17	Y17	Z17	X18	Y18	Z18	X19	Y19	Z19	X20	Y20	Z20	X21	Y21	Z21	X22	Y22	Z22	X23	Y23	Z23	X24	Y24	Z24	X25	Y25	Z25	X26	Y26	Z26	X27	Y27	Z27	X28	Y28	Z28	X29	Y29	Z29	X30	Y30	Z30	X31	Y31	Z31	X32	Y32	Z32	X33	Y33	Z33	X34	Y34	Z34	X35	Y35	Z35	X36	Y36	Z36

284	2.35833	1473.00610	1042.50208	376.11935	0.00000	0.00000	0.00000	0.00000	0.00000	0.00000	1280.73096	642.65973	483.91052	0.00000	0.00000	0.00000	1227.10144	654.03876	486.00403	0.00000	0.00000	0.00000	1211.76465	536.31293	339.35519	1263.91016	420.67902	468.47314	1249.28796	377.16354	463.11606	1200.09460	429.67075	461.60773	1198.38232	386.51721	456.85855	0.00000	0.00000	0.00000	1207.22485	112.69531	318.62204	1292.38892	65.29652	337.34052	1096.68640	61.18556	445.92950	1044.13940	79.52500	390.62549	0.00000	0.00000	0.00000	0.00000	0.00000	0.00000	1694.99097	246.39630	153.91068	1353.46106	684.71069	127.35020	1345.73669	642.84521	126.26537	0.00000	0.00000	0.00000	1293.06409	643.17108	121.31657	0.00000	0.00000	0.00000	1285.69678	491.78293	253.55193	1513.11096	404.98898	150.78809	1548.70032	374.24667	158.71928	1480.08167	355.08014	138.30972	1522.05359	332.50900	144.28647	0.00000	0.00000	0.00000	0.00000	0.00000	0.00000	1770.03259	261.69635	239.27223	0.00000	0.00000	0.00000	1604.22266	83.56184	197.60014	1650.83984	100.46785	129.18358
285	2.36667	1465.49402	1043.89380	377.37119	0.00000	0.00000	0.00000	0.00000	0.00000	0.00000	1276.20422	643.39960	484.73608	0.00000	0.00000	0.00000	1225.75269	654.50848	485.73218	0.00000	0.00000	0.00000	1208.35303	536.64233	339.64279	1260.98267	420.98227	468.91586	1246.62537	377.33569	463.48553	1197.87012	429.75128	462.27698	1196.12292	386.45508	457.09515	0.00000	0.00000	0.00000	1206.89600	112.54843	318.66556	1292.32678	65.51105	337.31696	1096.80383	61.42744	445.98239	1043.97607	79.29060	390.53461	0.00000	0.00000	0.00000	0.00000	0.00000	0.00000	1676.39856	250.90822	154.59299	1338.93213	685.61316	128.21269	1330.12891	643.91254	127.11909	0.00000	0.00000	0.00000	0.00000	0.00000	0.00000	0.00000	0.00000	0.00000	1266.84985	494.49640	254.53767	1493.94092	408.90891	151.42474	1529.62695	378.25824	159.38202	1461.16626	358.96686	138.96913	1501.82605	334.87772	143.84297	0.00000	0.00000	0.00000	0.00000	0.00000	0.00000	1751.38257	266.45734	239.95563	0.00000	0.00000	0.00000	1585.75073	88.11503	198.25929	1632.77637	105.26295	129.62018
286	2.37500	1458.06543	1045.27722	378.68024	0.00000	0.00000	0.00000	0.00000	0.00000	0.00000	1270.98621	643.50928	485.55020	0.00000	0.00000	0.00000	1218.73975	654.59802	486.60138	0.00000	0.00000	0.00000	1202.72046	536.67542	340.43253	1258.14392	421.35013	469.27969	1244.06128	377.52365	463.74817	1195.64062	430.71844	463.19247	1194.49573	387.61075	458.26083	0.00000	0.00000	0.00000	1206.81860	112.80799	318.61197	1292.26050	65.71996	337.30716	1097.00830	61.44505	445.99280	1043.83850	79.11899	390.51660	0.00000	0.00000	0.00000	0.00000	0.00000	0.00000	1657.17761	254.56474	155.23885	1324.74170	687.11920	129.59366	1315.13586	645.65649	128.25400	0.00000	0.00000	0.00000	1262.47913	648.36096	122.61029	0.00000	0.00000	0.00000	1248.80237	497.81064	255.53810	1474.57874	412.48865	151.93121	1509.85315	381.98276	160.23163	1441.72668	362.43378	139.50148	1483.76575	339.94608	145.54149	0.00000	0.00000	0.00000	0.00000	0.00000	0.00000	1732.19324	270.28970	240.56316	0.00000	0.00000	0.00000	1565.71667	92.22285	198.85997	1613.70850	108.88766	130.45793
287	2.38333	1450.62708	1046.66077	380.03915	0.00000	0.00000	0.00000	0.00000	0.00000	0.00000	1267.79663	645.45117	485.88351	1218.99097	698.70764	485.84241	1213.34790	654.56860	487.12582	0.00000	0.00000	0.00000	1199.08472	537.06659	340.93896	1255.14453	421.72690	469.44583	1241.51221	377.85049	463.97620	1191.47876	429.05676	462.93832	1190.67749	386.20291	458.36316	0.00000	0.00000	0.00000	1206.57825	112.86623	318.59033	1292.14404	65.93799	337.28192	1096.79492	61.13776	445.82227	1043.49390	78.82120	390.57471	0.00000	0.00000	0.00000	0.00000	0.00000	0.00000	1637.40991	257.19073	155.86206	1310.92407	689.10437	131.22223	1300.60437	647.81805	129.70457	0.00000	0.00000	0.00000	1248.10693	651.56995	123.24628	0.00000	0.00000	0.00000	1230.92578	501.45532	256.46405	1454.99951	415.39050	152.22632	1491.81567	385.41205	160.14523	1422.18005	365.41010	139.92053	1461.24780	341.13159	147.81030	0.00000	0.00000	0.00000	0.00000	0.00000	0.00000	1712.44971	272.86987	241.07422	0.00000	0.00000	0.00000	1545.41418	94.81480	199.81647	1593.69641	111.33865	131.53679
288	2.39167	1443.25537	1048.15320	381.37799	0.00000	0.00000	0.00000	0.00000	0.00000	0.00000	1263.06287	645.99323	486.25980	1213.86792	700.80823	489.21097	1208.48425	654.66949	487.51804	0.00000	0.00000	0.00000	1195.32678	537.25671	341.12341	1252.27637	422.16779	469.50708	1238.27612	377.95111	463.81219	1188.26428	429.07397	462.95053	1187.60132	386.08841	458.43216	0.00000	0.00000	0.00000	1206.20740	112.76078	318.62210	1291.98474	66.14295	337.26712	1096.70203	61.11483	445.79871	1043.36658	78.68327	390.55368	0.00000	0.00000	0.00000	0.00000	0.00000	0.00000	1617.25513	258.76056	156.36613	1297.43579	691.30481	132.93434	1286.31519	650.16144	131.32780	0.00000	0.00000	0.00000	1234.05310	654.92761	123.99165	0.00000	0.00000	0.00000	1213.21179	505.26868	257.11627	1435.43237	417.70898	152.45891	1470.94995	386.89597	160.60243	1402.41431	367.85464	140.33205	1441.81641	343.65204	148.03732	0.00000	0.00000	0.00000	0.00000	0.00000	0.00000	1692.41650	275.12305	241.69986	0.00000	0.00000	0.00000	1524.44800	96.78371	201.02036	1572.75220	112.87272	132.74696
289	2.40000	1435.95789	1049.63196	382.70496	0.00000	0.00000	0.00000	0.00000	0.00000	0.00000	1258.67529	646.64703	486.59952	1208.34338	700.66766	489.23428	1205.10974	655.27686	487.71405	0.00000	0.00000	0.00000	1193.24878	537.42529	342.41229	1249.42407	422.61963	469.53372	1235.66455	378.22772	463.80151	1185.62878	429.39743	463.08951	1188.12671	388.43936	459.81622	0.00000	0.00000	0.00000	1205.99500	112.90295	318.55273	1291.91736	66.38892	337.23499	1096.62500	61.04663	445.75024	1043.33008	78.57422	390.39905	0.00000	0.00000	0.00000	0.00000	0.00000	0.00000	1596.98486	257.88770	156.59575	1284.25842	693.70013	134.58215	1272.35388	652.72931	133.04019	0.00000	0.00000	0.00000	1220.26111	658.40265	124.70533	0.00000	0.00000	0.00000	1195.73718	509.22998	257.65219	1416.06738	419.50613	152.66304	1451.11279	388.66302	161.14786	1382.56152	369.82260	140.84225	1423.96301	346.97348	147.36440	0.00000	0.00000	0.00000	0.00000	0.00000	0.00000	1673.60571	275.15036	241.43373	0.00000	0.00000	0.00000	1499.57227	99.24860	203.15387	1550.95007	113.38365	134.02740
290	2.40833	1428.73560	1051.10437	383.98102	0.00000	0.00000	0.00000	0.00000	0.00000	0.00000	1253.99255	647.20325	486.81656	0.00000	0.00000	0.00000	1200.18774	655.12994	487.92615	0.00000	0.00000	0.00000	1187.83215	538.06177	341.57281	1246.66687	423.08099	469.48682	1233.94763	378.89310	464.04611	0.00000	0.00000	0.00000	1183.41809	386.47775	458.73950	0.00000	0.00000	0.00000	1205.81543	112.97765	318.50937	1291.78149	66.56667	337.23709	1096.50073	61.11448	445.79681	1043.02698	78.34250	390.45004	0.00000	0.00000	0.00000	0.00000	0.00000	0.00000	1575.70312	258.55057	157.31725	1271.31470	696.40918	135.91612	1258.53479	655.37659	134.61095	0.00000	0.00000	0.00000	1206.58557	661.94647	125.35349	0.00000	0.00000	0.00000	1178.26733	513.32098	257.90283	1396.91333	420.93600	152.88582	1431.84216	389.52121	161.16646	1362.89990	371.70157	141.24380	1403.00342	346.55182	148.07925	0.00000	0.00000	0.00000	0.00000	0.00000	0.00000	1652.57886	273.94495	241.53223	0.00000	0.00000	0.00000	1479.84424	99.12533	203.91827	1528.14783	113.01796	135.31017
